<?xml version="1.0" encoding="UTF-8"?>
<svg xmlns="http://www.w3.org/2000/svg" xmlns:xlink="http://www.w3.org/1999/xlink" width="24px" height="24px" viewBox="0 0 24 24" version="1.1">
<g id="surface1">
<path style=" stroke:none;fill-rule:nonzero;fill:rgb(28.627452%,29.803923%,30.588236%);fill-opacity:1;" d="M 17.332031 0 C 18.070312 0 18.667969 0.597656 18.667969 1.332031 C 18.667969 1.742188 18.480469 2.128906 18.160156 2.386719 L 18.078125 2.441406 C 16.566406 3.453125 15.433594 4.941406 14.851562 6.667969 C 14.726562 7.101562 14.660156 7.546875 14.652344 8 L 16.007812 8 C 16.503906 8.003906 16.953125 8.289062 17.167969 8.734375 C 17.394531 9.1875 17.347656 9.726562 17.046875 10.132812 L 13.058594 15.464844 C 12.804688 15.800781 12.410156 16 11.992188 16 C 11.570312 16 11.175781 15.800781 10.925781 15.464844 L 6.933594 10.132812 C 6.628906 9.726562 6.582031 9.183594 6.8125 8.734375 C 7.035156 8.289062 7.484375 8.003906 7.980469 8 L 9.332031 8 C 9.332031 5.132812 13.457031 0.121094 17.332031 0 Z M 17.332031 0 "/>
<path style=" stroke:none;fill-rule:nonzero;fill:rgb(28.627452%,29.803923%,30.588236%);fill-opacity:1;" d="M 24 10.667969 C 24.003906 10.710938 23.996094 10.757812 23.988281 10.800781 L 23.988281 22.667969 C 23.988281 23.402344 23.390625 24 22.652344 24 L 1.332031 24 C 0.597656 24 0 23.402344 0 22.667969 L 0.0117188 10.667969 C 0.0117188 10.191406 0.265625 9.75 0.679688 9.511719 C 1.09375 9.273438 1.601562 9.273438 2.011719 9.511719 C 2.425781 9.753906 2.679688 10.191406 2.679688 10.667969 C 2.683594 10.710938 2.675781 10.757812 2.667969 10.800781 L 2.667969 21.332031 L 21.320312 21.332031 L 21.320312 10.667969 L 21.332031 10.667969 C 21.332031 9.929688 21.929688 9.332031 22.667969 9.332031 C 23.402344 9.332031 24 9.929688 24 10.667969 Z M 24 10.667969 "/>
</g>
</svg>
